<svg width="32" height="32" viewBox="0 0 32 32" fill="none" xmlns="http://www.w3.org/2000/svg">
<path d="M8.03161 1.39136H3.3913C2.28673 1.39136 1.3913 2.28679 1.3913 3.39136V28.6087C1.3913 29.7133 2.28673 30.6087 3.3913 30.6087H8.03161" stroke="#3B3D38" stroke-linecap="round" stroke-linejoin="round"/>
<path d="M23.9684 1.39136H28.6087C29.7133 1.39136 30.6087 2.28679 30.6087 3.39136V28.6087C30.6087 29.7133 29.7133 30.6087 28.6087 30.6087H23.9684" stroke="#3B3D38" stroke-linecap="round" stroke-linejoin="round"/>
<rect x="7.20355" y="7.20361" width="1.65613" height="17.5929" fill="#3B3D38" stroke="#3B3D38"/>
<rect x="25.7964" y="7.20361" width="1.65613" height="17.5929" fill="#3B3D38" stroke="#3B3D38"/>
<rect x="11.0198" y="7.03563" width="0.664032" height="17.9289" fill="#3B3D38" stroke="#3B3D38" stroke-width="0.664032"/>
<rect x="18.9881" y="7.03563" width="0.664032" height="17.9289" fill="#3B3D38" stroke="#3B3D38" stroke-width="0.664032"/>
<rect x="13.8438" y="7.20361" width="2.98419" height="17.5929" fill="#3B3D38" stroke="#3B3D38"/>
<rect x="4.37947" y="7.03563" width="0.664032" height="17.9289" fill="#3B3D38" stroke="#3B3D38" stroke-width="0.664032"/>
<rect x="22.9723" y="7.03563" width="0.664032" height="17.9289" fill="#3B3D38" stroke="#3B3D38" stroke-width="0.664032"/>
</svg>
